<svg id="visual" viewBox="0 0 900 600" width="900" height="600" xmlns="http://www.w3.org/2000/svg" xmlns:xlink="http://www.w3.org/1999/xlink" version="1.1"><g stroke-width="1" stroke-linejoin="bevel"><path d="M398 318L323 314L377 398Z" fill="#07385d" stroke="#07385d"></path><path d="M323 314L276 397L377 398Z" fill="#063c65" stroke="#063c65"></path><path d="M317 470L391 460L377 398Z" fill="#064575" stroke="#064575"></path><path d="M377 398L498 392L398 318Z" fill="#063c65" stroke="#063c65"></path><path d="M276 397L317 470L377 398Z" fill="#083252" stroke="#083252"></path><path d="M391 460L498 392L377 398Z" fill="#064371" stroke="#064371"></path><path d="M502 273L379 204L398 318Z" fill="#064371" stroke="#064371"></path><path d="M398 318L379 204L323 314Z" fill="#063c65" stroke="#063c65"></path><path d="M206 288L204 398L276 397Z" fill="#063a61" stroke="#063a61"></path><path d="M206 288L276 397L323 314Z" fill="#064575" stroke="#064575"></path><path d="M276 397L204 398L317 470Z" fill="#07365a" stroke="#07365a"></path><path d="M498 392L502 273L398 318Z" fill="#064575" stroke="#064575"></path><path d="M339 173L206 288L323 314Z" fill="#064779" stroke="#064779"></path><path d="M365 90L339 173L379 204Z" fill="#064575" stroke="#064575"></path><path d="M379 204L339 173L323 314Z" fill="#06406d" stroke="#06406d"></path><path d="M502 273L469 172L379 204Z" fill="#064371" stroke="#064371"></path><path d="M391 460L473 532L498 392Z" fill="#063e69" stroke="#063e69"></path><path d="M372 600L473 532L391 460Z" fill="#07385d" stroke="#07385d"></path><path d="M206 288L135 373L204 398Z" fill="#083252" stroke="#083252"></path><path d="M204 398L197 528L317 470Z" fill="#064371" stroke="#064371"></path><path d="M135 373L197 528L204 398Z" fill="#063c65" stroke="#063c65"></path><path d="M317 470L372 600L391 460Z" fill="#063e69" stroke="#063e69"></path><path d="M365 90L311 114L339 173Z" fill="#063c65" stroke="#063c65"></path><path d="M339 173L202 161L206 288Z" fill="#07385d" stroke="#07385d"></path><path d="M206 288L107 328L135 373Z" fill="#063c65" stroke="#063c65"></path><path d="M311 114L202 161L339 173Z" fill="#064779" stroke="#064779"></path><path d="M272 600L372 600L317 470Z" fill="#083456" stroke="#083456"></path><path d="M126 230L107 328L206 288Z" fill="#063e69" stroke="#063e69"></path><path d="M135 373L86 530L197 528Z" fill="#083456" stroke="#083456"></path><path d="M469 172L365 90L379 204Z" fill="#063a61" stroke="#063a61"></path><path d="M311 114L172 131L202 161Z" fill="#07385d" stroke="#07385d"></path><path d="M202 161L126 230L206 288Z" fill="#07365a" stroke="#07365a"></path><path d="M197 528L272 600L317 470Z" fill="#083252" stroke="#083252"></path><path d="M636 600L599 473L473 532Z" fill="#083252" stroke="#083252"></path><path d="M473 532L599 473L498 392Z" fill="#063e69" stroke="#063e69"></path><path d="M498 392L625 399L502 273Z" fill="#064371" stroke="#064371"></path><path d="M502 273L588 178L469 172Z" fill="#07365a" stroke="#07365a"></path><path d="M599 473L625 399L498 392Z" fill="#064779" stroke="#064779"></path><path d="M372 600L467 600L473 532Z" fill="#064575" stroke="#064575"></path><path d="M625 399L626 263L502 273Z" fill="#063e69" stroke="#063e69"></path><path d="M469 172L536 71L365 90Z" fill="#064371" stroke="#064371"></path><path d="M119 600L222 600L197 528Z" fill="#063e69" stroke="#063e69"></path><path d="M197 528L222 600L272 600Z" fill="#063c65" stroke="#063c65"></path><path d="M626 263L588 178L502 273Z" fill="#063e69" stroke="#063e69"></path><path d="M200 0L172 131L311 114Z" fill="#063c65" stroke="#063c65"></path><path d="M202 161L172 131L126 230Z" fill="#063a61" stroke="#063a61"></path><path d="M713 485L675 360L625 399Z" fill="#064779" stroke="#064779"></path><path d="M625 399L675 360L626 263Z" fill="#07385d" stroke="#07385d"></path><path d="M626 263L684 182L588 178Z" fill="#064779" stroke="#064779"></path><path d="M0 471L86 530L135 373Z" fill="#064371" stroke="#064371"></path><path d="M588 178L536 71L469 172Z" fill="#06406d" stroke="#06406d"></path><path d="M675 360L693 282L626 263Z" fill="#07385d" stroke="#07385d"></path><path d="M588 178L607 94L536 71Z" fill="#07365a" stroke="#07365a"></path><path d="M86 530L119 600L197 528Z" fill="#07385d" stroke="#07385d"></path><path d="M414 0L320 0L365 90Z" fill="#063e69" stroke="#063e69"></path><path d="M365 90L320 0L311 114Z" fill="#063e69" stroke="#063e69"></path><path d="M536 71L414 0L365 90Z" fill="#063c65" stroke="#063c65"></path><path d="M684 182L607 94L588 178Z" fill="#064779" stroke="#064779"></path><path d="M536 71L537 0L414 0Z" fill="#063e69" stroke="#063e69"></path><path d="M107 328L0 409L135 373Z" fill="#083252" stroke="#083252"></path><path d="M86 530L0 600L119 600Z" fill="#083252" stroke="#083252"></path><path d="M0 289L0 409L107 328Z" fill="#06406d" stroke="#06406d"></path><path d="M0 289L107 328L126 230Z" fill="#083252" stroke="#083252"></path><path d="M0 217L0 289L126 230Z" fill="#06406d" stroke="#06406d"></path><path d="M693 282L684 182L626 263Z" fill="#06406d" stroke="#06406d"></path><path d="M467 600L636 600L473 532Z" fill="#063a61" stroke="#063a61"></path><path d="M599 473L713 485L625 399Z" fill="#063a61" stroke="#063a61"></path><path d="M675 360L769 292L693 282Z" fill="#07365a" stroke="#07365a"></path><path d="M0 409L0 471L135 373Z" fill="#07365a" stroke="#07365a"></path><path d="M665 600L713 485L599 473Z" fill="#063c65" stroke="#063c65"></path><path d="M693 282L769 292L684 182Z" fill="#063c65" stroke="#063c65"></path><path d="M73 93L0 217L126 230Z" fill="#064779" stroke="#064779"></path><path d="M73 93L126 230L172 131Z" fill="#064779" stroke="#064779"></path><path d="M100 0L73 93L172 131Z" fill="#064371" stroke="#064371"></path><path d="M320 0L200 0L311 114Z" fill="#064575" stroke="#064575"></path><path d="M635 0L536 71L607 94Z" fill="#064779" stroke="#064779"></path><path d="M635 0L537 0L536 71Z" fill="#06406d" stroke="#06406d"></path><path d="M636 600L665 600L599 473Z" fill="#07385d" stroke="#07385d"></path><path d="M799 414L769 292L675 360Z" fill="#083456" stroke="#083456"></path><path d="M200 0L100 0L172 131Z" fill="#063c65" stroke="#063c65"></path><path d="M73 93L0 92L0 217Z" fill="#063a61" stroke="#063a61"></path><path d="M0 471L0 600L86 530Z" fill="#083456" stroke="#083456"></path><path d="M0 0L0 92L73 93Z" fill="#064779" stroke="#064779"></path><path d="M812 107L703 69L684 182Z" fill="#083456" stroke="#083456"></path><path d="M684 182L703 69L607 94Z" fill="#064575" stroke="#064575"></path><path d="M713 485L799 414L675 360Z" fill="#064575" stroke="#064575"></path><path d="M830 461L799 414L713 485Z" fill="#07385d" stroke="#07385d"></path><path d="M703 69L635 0L607 94Z" fill="#063c65" stroke="#063c65"></path><path d="M829 600L830 461L713 485Z" fill="#083456" stroke="#083456"></path><path d="M900 295L818 177L769 292Z" fill="#064779" stroke="#064779"></path><path d="M769 292L818 177L684 182Z" fill="#083456" stroke="#083456"></path><path d="M900 295L769 292L799 414Z" fill="#064371" stroke="#064371"></path><path d="M703 69L703 0L635 0Z" fill="#064575" stroke="#064575"></path><path d="M821 0L703 0L703 69Z" fill="#06406d" stroke="#06406d"></path><path d="M100 0L0 0L73 93Z" fill="#083456" stroke="#083456"></path><path d="M818 177L812 107L684 182Z" fill="#083456" stroke="#083456"></path><path d="M665 600L829 600L713 485Z" fill="#064575" stroke="#064575"></path><path d="M900 484L900 392L830 461Z" fill="#083456" stroke="#083456"></path><path d="M830 461L900 392L799 414Z" fill="#083456" stroke="#083456"></path><path d="M818 177L900 138L812 107Z" fill="#064575" stroke="#064575"></path><path d="M900 392L900 295L799 414Z" fill="#064779" stroke="#064779"></path><path d="M829 600L900 484L830 461Z" fill="#07365a" stroke="#07365a"></path><path d="M900 295L900 169L818 177Z" fill="#07385d" stroke="#07385d"></path><path d="M812 107L821 0L703 69Z" fill="#07385d" stroke="#07385d"></path><path d="M900 0L821 0L812 107Z" fill="#063c65" stroke="#063c65"></path><path d="M900 169L900 138L818 177Z" fill="#064371" stroke="#064371"></path><path d="M829 600L900 600L900 484Z" fill="#064575" stroke="#064575"></path><path d="M900 138L900 0L812 107Z" fill="#063a61" stroke="#063a61"></path></g></svg>