<svg id="visual" viewBox="0 0 960 540" width="960" height="540" xmlns="http://www.w3.org/2000/svg" xmlns:xlink="http://www.w3.org/1999/xlink" version="1.1"><path d="M0 28L22.8 26.2C45.7 24.3 91.3 20.7 137 19.8C182.7 19 228.3 21 274 22C319.7 23 365.3 23 411.2 23C457 23 503 23 548.8 22C594.7 21 640.3 19 686 18C731.7 17 777.3 17 823 18.8C868.7 20.7 914.3 24.3 937.2 26.2L960 28L960 0L937.2 0C914.3 0 868.7 0 823 0C777.3 0 731.7 0 686 0C640.3 0 594.7 0 548.8 0C503 0 457 0 411.2 0C365.3 0 319.7 0 274 0C228.3 0 182.7 0 137 0C91.3 0 45.7 0 22.8 0L0 0Z" fill="#fcaf3c"></path><path d="M0 50L22.8 48.2C45.7 46.3 91.3 42.7 137 43.5C182.7 44.3 228.3 49.7 274 50.5C319.7 51.3 365.3 47.7 411.2 47.7C457 47.7 503 51.3 548.8 52.3C594.7 53.3 640.3 51.7 686 49C731.7 46.3 777.3 42.7 823 44.3C868.7 46 914.3 53 937.2 56.5L960 60L960 26L937.2 24.2C914.3 22.3 868.7 18.7 823 16.8C777.3 15 731.7 15 686 16C640.3 17 594.7 19 548.8 20C503 21 457 21 411.2 21C365.3 21 319.7 21 274 20C228.3 19 182.7 17 137 17.8C91.3 18.7 45.7 22.3 22.8 24.2L0 26Z" fill="#fda23c"></path><path d="M0 71L22.8 69.2C45.7 67.3 91.3 63.7 137 66.3C182.7 69 228.3 78 274 78C319.7 78 365.3 69 411.2 69C457 69 503 78 548.8 79.8C594.7 81.7 640.3 76.3 686 72.8C731.7 69.3 777.3 67.7 823 69.5C868.7 71.3 914.3 76.7 937.2 79.3L960 82L960 58L937.2 54.5C914.3 51 868.7 44 823 42.3C777.3 40.7 731.7 44.3 686 47C640.3 49.7 594.7 51.3 548.8 50.3C503 49.3 457 45.7 411.2 45.7C365.3 45.7 319.7 49.3 274 48.5C228.3 47.7 182.7 42.3 137 41.5C91.3 40.7 45.7 44.3 22.8 46.2L0 48Z" fill="#fd943e"></path><path d="M0 98L22.8 95.3C45.7 92.7 91.3 87.3 137 90C182.7 92.7 228.3 103.3 274 103.3C319.7 103.3 365.3 92.7 411.2 92.7C457 92.7 503 103.3 548.8 106C594.7 108.7 640.3 103.3 686 98.8C731.7 94.3 777.3 90.7 823 90.7C868.7 90.7 914.3 94.3 937.2 96.2L960 98L960 80L937.2 77.3C914.3 74.7 868.7 69.3 823 67.5C777.3 65.7 731.7 67.3 686 70.8C640.3 74.3 594.7 79.7 548.8 77.8C503 76 457 67 411.2 67C365.3 67 319.7 76 274 76C228.3 76 182.7 67 137 64.3C91.3 61.7 45.7 65.3 22.8 67.2L0 69Z" fill="#fb8741"></path><path d="M0 131L22.8 127.3C45.7 123.7 91.3 116.3 137 120.8C182.7 125.3 228.3 141.7 274 143.5C319.7 145.3 365.3 132.7 411.2 131.7C457 130.7 503 141.3 548.8 143.2C594.7 145 640.3 138 686 134.5C731.7 131 777.3 131 823 131C868.7 131 914.3 131 937.2 131L960 131L960 96L937.2 94.2C914.3 92.3 868.7 88.7 823 88.7C777.3 88.7 731.7 92.3 686 96.8C640.3 101.3 594.7 106.7 548.8 104C503 101.3 457 90.7 411.2 90.7C365.3 90.7 319.7 101.3 274 101.3C228.3 101.3 182.7 90.7 137 88C91.3 85.3 45.7 90.7 22.8 93.3L0 96Z" fill="#f97a45"></path><path d="M0 152L22.8 148.5C45.7 145 91.3 138 137 141.7C182.7 145.3 228.3 159.7 274 160.5C319.7 161.3 365.3 148.7 411.2 147.7C457 146.7 503 157.3 548.8 159.2C594.7 161 640.3 154 686 150.5C731.7 147 777.3 147 823 147C868.7 147 914.3 147 937.2 147L960 147L960 129L937.2 129C914.3 129 868.7 129 823 129C777.3 129 731.7 129 686 132.5C640.3 136 594.7 143 548.8 141.2C503 139.3 457 128.7 411.2 129.7C365.3 130.7 319.7 143.3 274 141.5C228.3 139.7 182.7 123.3 137 118.8C91.3 114.3 45.7 121.7 22.8 125.3L0 129Z" fill="#f56d4a"></path><path d="M0 201L22.8 199.2C45.7 197.3 91.3 193.7 137 197.2C182.7 200.7 228.3 211.3 274 210.5C319.7 209.7 365.3 197.3 411.2 196.5C457 195.7 503 206.3 548.8 208C594.7 209.7 640.3 202.3 686 197.8C731.7 193.3 777.3 191.7 823 189C868.7 186.3 914.3 182.7 937.2 180.8L960 179L960 145L937.2 145C914.3 145 868.7 145 823 145C777.3 145 731.7 145 686 148.5C640.3 152 594.7 159 548.8 157.2C503 155.3 457 144.7 411.2 145.7C365.3 146.7 319.7 159.3 274 158.5C228.3 157.7 182.7 143.3 137 139.7C91.3 136 45.7 143 22.8 146.5L0 150Z" fill="#f05f4e"></path><path d="M0 233L22.8 229.5C45.7 226 91.3 219 137 221.7C182.7 224.3 228.3 236.7 274 236.7C319.7 236.7 365.3 224.3 411.2 225.3C457 226.3 503 240.7 548.8 243.3C594.7 246 640.3 237 686 232.5C731.7 228 777.3 228 823 225.3C868.7 222.7 914.3 217.3 937.2 214.7L960 212L960 177L937.2 178.8C914.3 180.7 868.7 184.3 823 187C777.3 189.7 731.7 191.3 686 195.8C640.3 200.3 594.7 207.7 548.8 206C503 204.3 457 193.7 411.2 194.5C365.3 195.3 319.7 207.7 274 208.5C228.3 209.3 182.7 198.7 137 195.2C91.3 191.7 45.7 195.3 22.8 197.2L0 199Z" fill="#ea5254"></path><path d="M0 309L22.8 305.3C45.7 301.7 91.3 294.3 137 292.5C182.7 290.7 228.3 294.3 274 291.7C319.7 289 365.3 280 411.2 282.7C457 285.3 503 299.7 548.8 301.5C594.7 303.3 640.3 292.7 686 290.8C731.7 289 777.3 296 823 295C868.7 294 914.3 285 937.2 280.5L960 276L960 210L937.2 212.7C914.3 215.3 868.7 220.7 823 223.3C777.3 226 731.7 226 686 230.5C640.3 235 594.7 244 548.8 241.3C503 238.7 457 224.3 411.2 223.3C365.3 222.3 319.7 234.7 274 234.7C228.3 234.7 182.7 222.3 137 219.7C91.3 217 45.7 224 22.8 227.5L0 231Z" fill="#e34659"></path><path d="M0 336L22.8 333.3C45.7 330.7 91.3 325.3 137 326.2C182.7 327 228.3 334 274 332.2C319.7 330.3 365.3 319.7 411.2 319.7C457 319.7 503 330.3 548.8 330.3C594.7 330.3 640.3 319.7 686 321.5C731.7 323.3 777.3 337.7 823 339.5C868.7 341.3 914.3 330.7 937.2 325.3L960 320L960 274L937.2 278.5C914.3 283 868.7 292 823 293C777.3 294 731.7 287 686 288.8C640.3 290.7 594.7 301.3 548.8 299.5C503 297.7 457 283.3 411.2 280.7C365.3 278 319.7 287 274 289.7C228.3 292.3 182.7 288.7 137 290.5C91.3 292.3 45.7 299.7 22.8 303.3L0 307Z" fill="#db3a5e"></path><path d="M0 406L22.8 404.2C45.7 402.3 91.3 398.7 137 400.5C182.7 402.3 228.3 409.7 274 416.8C319.7 424 365.3 431 411.2 433.7C457 436.3 503 434.7 548.8 430.2C594.7 425.7 640.3 418.3 686 422.8C731.7 427.3 777.3 443.7 823 443.7C868.7 443.7 914.3 427.3 937.2 419.2L960 411L960 318L937.2 323.3C914.3 328.7 868.7 339.3 823 337.5C777.3 335.7 731.7 321.3 686 319.5C640.3 317.7 594.7 328.3 548.8 328.3C503 328.3 457 317.7 411.2 317.7C365.3 317.7 319.7 328.3 274 330.2C228.3 332 182.7 325 137 324.2C91.3 323.3 45.7 328.7 22.8 331.3L0 334Z" fill="#d12e63"></path><path d="M0 541L22.8 541C45.7 541 91.3 541 137 541C182.7 541 228.3 541 274 541C319.7 541 365.3 541 411.2 541C457 541 503 541 548.8 541C594.7 541 640.3 541 686 541C731.7 541 777.3 541 823 541C868.7 541 914.3 541 937.2 541L960 541L960 409L937.2 417.2C914.3 425.3 868.7 441.7 823 441.7C777.3 441.7 731.7 425.3 686 420.8C640.3 416.3 594.7 423.7 548.8 428.2C503 432.7 457 434.3 411.2 431.7C365.3 429 319.7 422 274 414.8C228.3 407.7 182.7 400.3 137 398.5C91.3 396.7 45.7 400.3 22.8 402.2L0 404Z" fill="#c62368"></path></svg>